<svg width="600" height="72" viewBox="0 0 600 72" fill="none" xmlns="http://www.w3.org/2000/svg">
<path d="M31.456 3.664L50.968 55H39.16L35.128 43.552H16.048L11.872 55H0.352L19.864 3.664H31.456ZM32.392 35.344L25.624 16.264L18.784 35.344H32.392ZM49.2394 3.736H60.5434L68.7514 38.584L77.7514 3.736H88.3354L97.1914 39.016L105.687 3.736H116.775L102.951 55H91.7194L82.9354 20.008L74.2954 55H62.8474L49.2394 3.736ZM160.432 3.736V12.952H133.144V24.112H158.2V32.968H133.144V45.568H160.936V55H121.984V3.736H160.432ZM206.615 19H195.959C195.527 13.912 192.287 11.368 186.239 11.368C183.647 11.368 181.607 11.896 180.119 12.952C178.679 13.96 177.959 15.376 177.959 17.2C177.959 17.824 178.055 18.376 178.247 18.856C178.439 19.336 178.799 19.792 179.327 20.224C179.855 20.608 180.383 20.944 180.911 21.232C181.439 21.472 182.207 21.76 183.215 22.096C184.271 22.384 185.207 22.648 186.023 22.888C186.887 23.128 188.087 23.44 189.623 23.824C191.159 24.208 192.503 24.568 193.655 24.904C198.695 26.344 202.439 28.144 204.887 30.304C207.383 32.464 208.631 35.56 208.631 39.592C208.631 42.52 208.031 45.088 206.831 47.296C205.631 49.456 203.999 51.184 201.935 52.48C199.919 53.728 197.687 54.64 195.239 55.216C192.839 55.84 190.271 56.152 187.535 56.152C180.575 56.152 175.127 54.568 171.191 51.4C167.303 48.184 165.335 43.672 165.287 37.864H176.447C176.639 44.296 180.503 47.512 188.039 47.512C190.967 47.512 193.271 46.912 194.951 45.712C196.679 44.464 197.543 42.784 197.543 40.672C197.543 38.896 196.751 37.6 195.167 36.784C193.631 35.968 190.367 34.84 185.375 33.4C185.087 33.352 184.871 33.304 184.727 33.256C184.583 33.208 184.391 33.16 184.151 33.112C183.911 33.016 183.695 32.944 183.503 32.896C181.775 32.416 180.575 32.08 179.903 31.888C179.231 31.648 178.151 31.264 176.663 30.736C175.223 30.208 174.167 29.728 173.495 29.296C172.823 28.864 171.983 28.264 170.975 27.496C170.015 26.728 169.319 25.936 168.887 25.12C168.455 24.256 168.047 23.224 167.663 22.024C167.327 20.776 167.159 19.432 167.159 17.992C167.159 13.336 168.959 9.616 172.559 6.832C176.159 4.048 180.935 2.656 186.887 2.656C192.647 2.656 197.351 4.024 200.999 6.76C204.647 9.448 206.519 13.528 206.615 19ZM238.613 2.512C246.101 2.512 252.149 5.008 256.757 10C261.413 14.944 263.741 21.424 263.741 29.44C263.741 37.456 261.413 43.936 256.757 48.88C252.149 53.776 246.077 56.224 238.541 56.224C230.957 56.224 224.837 53.776 220.181 48.88C215.525 43.936 213.197 37.456 213.197 29.44C213.197 21.328 215.501 14.824 220.109 9.928C224.765 4.984 230.933 2.512 238.613 2.512ZM238.469 11.728C234.245 11.728 230.861 13.312 228.317 16.48C225.821 19.648 224.573 23.896 224.573 29.224C224.573 34.744 225.821 39.064 228.317 42.184C230.813 45.304 234.245 46.888 238.613 46.936C242.885 46.936 246.245 45.352 248.693 42.184C251.141 39.016 252.365 34.696 252.365 29.224C252.365 23.848 251.117 19.6 248.621 16.48C246.125 13.312 242.741 11.728 238.469 11.728ZM271.468 55V3.736H287.524L299.476 38.944L311.14 3.736H326.836V55H316.252V18.568L303.652 55H294.94L282.196 18.928V55H271.468ZM375.236 3.736V12.952H347.948V24.112H373.004V32.968H347.948V45.568H375.74V55H336.788V3.736H375.236ZM383.548 3.736H405.652C411.412 3.736 415.972 5.128 419.332 7.912C422.74 10.648 424.444 14.752 424.444 20.224C424.444 25.6 422.764 29.68 419.404 32.464C416.044 35.2 411.652 36.568 406.228 36.568H394.708V55H383.548V3.736ZM394.708 12.952V27.712H404.716C410.572 27.712 413.5 25.264 413.5 20.368C413.5 15.424 410.596 12.952 404.788 12.952H394.708ZM431.931 3.736H457.419C462.507 3.736 466.659 4.936 469.875 7.336C473.091 9.736 474.699 13.384 474.699 18.28C474.699 21.256 473.979 23.872 472.539 26.128C471.099 28.336 469.107 29.92 466.563 30.88C470.979 31.792 473.499 35.776 474.123 42.832C474.123 43.072 474.171 43.816 474.267 45.064C474.363 46.312 474.459 47.32 474.555 48.088C474.651 48.808 474.771 49.696 474.915 50.752C475.059 51.808 475.275 52.696 475.563 53.416C475.851 54.136 476.187 54.664 476.571 55H464.907C464.523 54.232 464.235 53.272 464.043 52.12C463.851 50.92 463.683 49.408 463.539 47.584C463.395 45.712 463.323 44.68 463.323 44.488C462.939 40.888 462.027 38.392 460.587 37C459.195 35.608 456.699 34.912 453.099 34.912H443.091V55H431.931V3.736ZM443.091 12.592V26.776H453.747C456.867 26.776 459.291 26.296 461.019 25.336C462.795 24.328 463.683 22.384 463.683 19.504C463.683 16.816 462.819 14.992 461.091 14.032C459.411 13.072 457.131 12.592 454.251 12.592H443.091ZM494.764 3.736V55H483.46V3.736H494.764ZM550.487 35.2C549.911 41.632 547.655 46.744 543.719 50.536C539.783 54.328 534.383 56.224 527.519 56.224C520.079 56.224 514.079 53.776 509.519 48.88C505.007 43.936 502.751 37.408 502.751 29.296C502.751 21.616 505.031 15.232 509.591 10.144C514.199 5.056 520.319 2.512 527.951 2.512C534.047 2.512 539.159 4.24 543.287 7.696C547.415 11.152 549.695 15.544 550.127 20.872H539.111C538.535 18.04 537.239 15.856 535.223 14.32C533.255 12.736 530.759 11.944 527.735 11.944C524.615 11.944 521.975 12.832 519.815 14.608C517.703 16.336 516.215 18.472 515.351 21.016C514.487 23.56 514.055 26.344 514.055 29.368C514.055 34.648 515.279 38.872 517.727 42.04C520.175 45.16 523.463 46.72 527.591 46.72C534.455 46.72 538.367 42.88 539.327 35.2H550.487ZM596.51 3.736V12.952H569.222V24.112H594.278V32.968H569.222V45.568H597.014V55H558.062V3.736H596.51Z" fill="black"/>
</svg>
